<svg width="34" height="29" fill="none" xmlns="http://www.w3.org/2000/svg"><path fill-rule="evenodd" clip-rule="evenodd" d="M0 7.718L.506 5.87l3.548.04a6.872 6.872 0 011.132-1.298l-.868-3.2L5.98.457 8.478 3a6.873 6.873 0 011.739-.097L11.9 0l1.846.51-.048 3.65a6.862 6.862 0 011.114.998l3.311-.939.972 1.651-2.643 2.658c.025.148.046.297.063.448a5.854 5.854 0 00-1.145.086 5.666 5.666 0 00-1.627-3.365 5.665 5.665 0 00-4.018-1.664c-1.569 0-2.99.636-4.018 1.664a5.665 5.665 0 00-1.664 4.018c0 1.51.59 2.882 1.55 3.9a5.714 5.714 0 00-1.28.89l-2.887.789-.957-1.66L3.037 11.1a6.86 6.86 0 01-.133-1.709L0 7.718z" fill="#444C59"/><path fill-rule="evenodd" clip-rule="evenodd" d="M4.891 10.331l.032-1.23.773.02a3.902 3.902 0 01.617-1.699l-.55-.575.892-.85.494.518a3.863 3.863 0 011.661-.76l.014-.758 1.23.021-.012.701a3.875 3.875 0 011.736.677l.56-.537.852.89-.533.51a3.86 3.86 0 01.71 1.7l.838.026-.038 1.23-.806-.024a3.875 3.875 0 01-.667 1.616l.621.657-.894.845-.594-.627a3.917 3.917 0 01-1.496.666l-.005.939-1.231-.007.004-.877a3.882 3.882 0 01-1.656-.592l-.662.643-.858-.883.604-.586a3.87 3.87 0 01-.773-1.63l-.863-.024zm4.657-3.099a2.41 2.41 0 110 4.82 2.41 2.41 0 010-4.82z" fill="#F38D19"/><path fill-rule="evenodd" clip-rule="evenodd" d="M8.05 9.642a1.499 1.499 0 112.997 0 1.499 1.499 0 01-2.998 0zm4.8 2.185l1.1-1.472.926.691a5.808 5.808 0 012.216-1.537l-.172-1.174 1.818-.267.155 1.057a5.768 5.768 0 012.68.508l.67-.913 1.482 1.088-.62.843a5.786 5.786 0 011.53 2.322l1.147-.17.27 1.817-1.09.162a5.764 5.764 0 01-.6 2.685l.997.754-1.107 1.466-.961-.726a5.786 5.786 0 01-2.206 1.393l.19 1.337-1.82.258-.181-1.276a5.798 5.798 0 01-2.398-.48l-.816 1.14-1.494-1.07.763-1.065a5.79 5.79 0 01-1.507-2.15l-1.361.213-.284-1.816 1.24-.194a5.818 5.818 0 01.466-2.653l-1.032-.771zm6.361-.324a3.377 3.377 0 110 6.754 3.377 3.377 0 010-6.754zM5.568 17.744l-.292-.617.388-.183a2.15 2.15 0 01-.12-.995l-.414-.147.228-.643.374.132a2.16 2.16 0 01.633-.79l-.183-.38.614-.296.17.35a2.148 2.148 0 011.028-.098l.143-.407.643.228-.136.386a2.136 2.136 0 01.776.664l.421-.197.289.618-.406.19a2.147 2.147 0 01.074.966l.472.17-.232.642-.45-.163a2.143 2.143 0 01-.574.704l.232.466-.611.304-.217-.435a2.184 2.184 0 01-.967.12l-.167.484-.646-.223.153-.44A2.147 2.147 0 016 17.54l-.433.204zm1.53-2.697a1.336 1.336 0 111.204 2.384A1.336 1.336 0 017.1 15.047z" fill="#444C59"/><path fill-rule="evenodd" clip-rule="evenodd" d="M7.29 15.426a.911.911 0 11.821 1.627.911.911 0 01-.821-1.627zm25.95-.711l-.143 2.648-4.812.986a9.491 9.491 0 01-1.152 2.087l2.113 4.077-1.97 1.776-4.125-2.707a9.532 9.532 0 01-2.325.64l-1.426 4.42-2.648-.148-1.003-4.953a9.47 9.47 0 01-1.8-1.024l-4.205 2.24-1.799-1.95 2.799-4.37a9.407 9.407 0 01-.236-.644 5.7 5.7 0 001.595-.246 7.845 7.845 0 003.134 3.927 7.843 7.843 0 005.924 1.075 7.842 7.842 0 004.95-3.428 7.841 7.841 0 001.074-5.924c-.46-2.123-1.97-4.01-3.428-4.95.97-.597 2.548-1.44 3.695-2.167.057-.037-.005-.153.05-.188.901-.572 1.572-1 1.59-1.01l1.78 1.966-2.731 4.18a9.496 9.496 0 01.68 2.272l4.42 1.415z" fill="#F38D19"/><path fill-rule="evenodd" clip-rule="evenodd" d="M19.192 12.596a2.278 2.278 0 110 4.557 2.278 2.278 0 010-4.557z" fill="#F38D19"/></svg>