<svg width="21" height="21" fill="none" xmlns="http://www.w3.org/2000/svg"><path d="M10.004.193a9.999 9.999 0 100 19.998 9.999 9.999 0 000-19.998z" fill="url(#paint0_linear_5_20)"/><path d="M4.53 10.087a486.03 486.03 0 015.831-2.511c2.779-1.156 3.355-1.356 3.732-1.363.082-.001.267.02.387.116a.43.43 0 01.142.271c.013.078.03.255.016.394-.15 1.581-.802 5.418-1.133 7.19-.139.749-.415 1-.683 1.025-.58.053-1.021-.384-1.584-.753-.88-.577-1.377-.936-2.231-1.499-.988-.65-.347-1.008.215-1.593.147-.153 2.707-2.48 2.755-2.691.006-.026.013-.125-.047-.177-.058-.052-.144-.034-.206-.02-.09.02-1.494.95-4.219 2.788-.398.274-.76.408-1.084.4-.356-.007-1.044-.201-1.555-.367-.625-.204-1.123-.311-1.08-.657.022-.18.27-.364.744-.553z" fill="#fff"/><defs><linearGradient id="paint0_linear_5_20" x1="10.004" y1=".193" x2="10.004" y2="20.193" gradientUnits="userSpaceOnUse"><stop stop-color="#2AABEE"/><stop offset="1" stop-color="#229ED9"/></linearGradient></defs></svg>