<svg width="206" height="37" fill="none" xmlns="http://www.w3.org/2000/svg"><path fill-rule="evenodd" clip-rule="evenodd" d="M101.485 19.322c0 5.01-3.68 8.25-8.906 8.25-5.226 0-8.907-3.24-8.907-8.25s3.681-8.25 8.907-8.25 8.906 3.24 8.906 8.25zm-13.965 0c0 3.105 2.045 5.25 5.059 5.25 3.014 0 5.059-2.145 5.059-5.25s-2.045-5.175-5.06-5.175c-3.013 0-5.058 2.07-5.058 5.175zm-25.796-.315c1.44-.66 2.363-1.77 2.363-3.495 0-2.595-2.393-4.44-5.862-4.44h-7.982v16.5h8.33c3.59 0 6.09-1.935 6.09-4.575 0-1.995-1.318-3.48-2.939-3.99zm-7.8-4.92h4.286c1.288 0 2.181.75 2.181 1.8s-.908 1.8-2.18 1.8h-4.288v-3.615.015zm4.65 10.485h-4.635v-4.05h4.635c1.454 0 2.408.825 2.408 2.04 0 1.2-.954 1.995-2.408 1.995v.015zm24.78 3l-7.664-8.565 7.028-7.935h-4.393l-5.574 6.405h-.909v-6.405h-3.68v16.5h3.696v-6.57h.893l5.756 6.57h4.847zm32.476-16.5v6.51h-7.468v-6.51h-3.696v16.5h3.681v-6.66h7.467v6.66h3.681v-16.5h-3.681.016zm15.798 16.5h-3.696v-13.17h-5.756v-3.33h15.208v3.33h-5.756v13.17zm14.693-16.5c-3.242 0-6.09 1.335-6.923 4.2l3.393.555a3.595 3.595 0 011.394-1.412 3.631 3.631 0 011.939-.463c2.014 0 3.211 1.35 3.362 3.495h-3.59c-4.892 0-7.331 2.13-7.331 5.175 0 3.075 2.409 4.95 5.802 4.95 2.726 0 4.544-1.23 5.347-2.595l.757 2.595h2.726v-9.27c0-4.785-2.62-7.23-6.876-7.23zm-1.091 13.74c-1.803 0-2.954-.915-2.954-2.355 0-1.26.939-2.145 3.757-2.145h3.484c0 2.7-1.727 4.5-4.287 4.5zm27.038 2.76h-4.848l-5.755-6.57h-.909v6.57h-3.666v-16.5h3.681v6.405h.894l5.559-6.405h4.392l-7.013 7.935 7.649 8.565h.016zm6.467 0h3.696v-13.17h5.756v-3.33h-15.208v3.33h5.756v13.17zm18.631-16.5c5.044 0 8.634 3.3 8.634 8.055 0 .45-.03.825-.061 1.185h-13.39c.349 2.535 2.212 4.245 5.029 4.245 1.954 0 3.484-.825 4.287-1.995l3.469.57c-1.258 3.15-4.514 4.44-7.983 4.44-5.059 0-8.649-3.27-8.649-8.25s3.59-8.25 8.649-8.25h.015zm4.635 6.375a4.585 4.585 0 00-1.731-2.49 4.664 4.664 0 00-2.919-.885 4.577 4.577 0 00-2.889.888 4.494 4.494 0 00-1.685 2.487h9.224z" fill="#000"/><path d="M17.42 36.572h1.514c8.24 0 12.345 0 14.89-2.52 2.529-2.52 2.529-6.6 2.529-14.73v-1.53c0-8.1 0-12.18-2.53-14.7C31.28.572 27.16.572 18.933.572H17.42c-8.24 0-12.345 0-14.89 2.52C0 5.612 0 9.692 0 17.822v1.53c0 8.1 0 12.18 2.545 14.7 2.544 2.52 6.664 2.52 14.874 2.52z" fill="#07F"/><path d="M19.343 26.507c-8.286 0-13.012-5.625-13.208-14.985h4.15c.136 6.87 3.196 9.78 5.62 10.38v-10.38h3.907v5.925c2.394-.255 4.908-2.955 5.756-5.925h3.908a11.375 11.375 0 01-1.871 4.284 11.499 11.499 0 01-3.445 3.186 11.945 11.945 0 013.926 3.097 11.81 11.81 0 012.299 4.418h-4.302a7.401 7.401 0 00-2.319-3.615 7.518 7.518 0 00-3.952-1.74v5.355h-.47z" fill="#fff"/></svg>