<svg width="21" height="21" fill="none" xmlns="http://www.w3.org/2000/svg"><path d="M9.587 20.193h.833c4.534 0 6.792 0 8.192-1.4 1.392-1.4 1.392-3.667 1.392-8.183v-.85c0-4.5 0-6.767-1.392-8.167-1.4-1.4-3.667-1.4-8.192-1.4h-.833c-4.533 0-6.792 0-8.192 1.4C.004 2.993.004 5.26.004 9.776v.85c0 4.5 0 6.767 1.4 8.167 1.4 1.4 3.666 1.4 8.183 1.4z" fill="#07F"/><path d="M10.645 14.601c-4.558 0-7.158-3.125-7.266-8.325h2.283c.075 3.817 1.758 5.434 3.092 5.767V6.276h2.15v3.292c1.316-.142 2.7-1.642 3.166-3.292h2.15a6.35 6.35 0 01-2.925 4.15 6.583 6.583 0 013.425 4.175h-2.366a4.117 4.117 0 00-3.45-2.975v2.975h-.259z" fill="#fff"/></svg>