<svg width="20" height="21" fill="none" xmlns="http://www.w3.org/2000/svg"><path fill-rule="evenodd" clip-rule="evenodd" d="M5.778 4.636h.07c.165 0 .327 0 .471.007" fill="#fff"/><path fill-rule="evenodd" clip-rule="evenodd" d="M4.544 18.58l.366.217a9.984 9.984 0 005.088 1.394h.004c5.51 0 9.996-4.484 9.998-9.995v-.038a9.933 9.933 0 00-2.926-7.031A9.933 9.933 0 0010.006.196C4.642.196.253 4.436.014 9.738a9.967 9.967 0 001.518 5.768l.238.379v.002L.76 19.573l3.784-.992zM6.32 4.644c.215.008.452.018.677.519.153.342.412.979.618 1.487.152.375.276.68.308.744.075.15.125.326.025.526l-.042.086a1.7 1.7 0 01-.258.416c-.05.058-.102.121-.154.184-.104.126-.207.252-.297.342-.15.15-.307.313-.132.613.175.301.779 1.285 1.672 2.082.96.855 1.794 1.217 2.217 1.401.083.036.15.066.2.09.3.15.476.126.651-.075.176-.2.752-.878.952-1.178.2-.301.4-.251.676-.15.276.1 1.753.827 2.054.977.058.03.113.056.164.08.21.101.352.17.412.27.075.126.075.728-.175 1.43-.25.701-1.478 1.378-2.029 1.428l-.03.003-.13.015c-.509.06-1.152.135-3.447-.77-2.823-1.113-4.684-3.872-5.07-4.442a3.168 3.168 0 00-.064-.094l-.003-.005C4.95 10.404 3.89 8.986 3.89 7.518c0-1.384.68-2.11.993-2.443l.059-.063c.275-.301.601-.376.801-.376h.105c.165 0 .327 0 .471.007z" fill="#fff"/><path fill-rule="evenodd" clip-rule="evenodd" d="M4.544 18.58l.366.217a9.984 9.984 0 005.088 1.394h.004c5.51 0 9.996-4.484 9.998-9.995v-.038a9.933 9.933 0 00-2.926-7.031A9.933 9.933 0 0010.006.196C4.642.196.253 4.436.014 9.738a9.967 9.967 0 001.518 5.768l.238.379v.002L.76 19.573l3.784-.992zM6.32 4.644c.215.008.452.018.677.519.153.342.412.979.618 1.487.152.375.276.68.308.744.075.15.125.326.025.526l-.042.086a1.7 1.7 0 01-.258.416c-.05.058-.102.121-.154.184-.104.126-.207.252-.297.342-.15.15-.307.313-.132.613.175.301.779 1.285 1.672 2.082.96.855 1.794 1.217 2.217 1.401.083.036.15.066.2.09.3.15.476.126.651-.075.176-.2.752-.878.952-1.178.2-.301.4-.251.676-.15.276.1 1.753.827 2.054.977.058.03.113.056.164.08.21.101.352.17.412.27.075.126.075.728-.175 1.43-.25.701-1.478 1.378-2.029 1.428l-.03.003-.13.015c-.509.06-1.152.135-3.447-.77-2.823-1.113-4.684-3.872-5.07-4.442a3.168 3.168 0 00-.064-.094l-.003-.005C4.95 10.404 3.89 8.986 3.89 7.518c0-1.384.68-2.11.993-2.443l.059-.063c.275-.301.601-.376.801-.376h.105c.165 0 .327 0 .471.007z" fill="url(#paint0_linear_5_21)"/><path d="M6.996 5.162c-.225-.5-.462-.51-.677-.52a11.592 11.592 0 00-.47-.006h-.106c-.2 0-.526.075-.801.376l-.059.063c-.313.333-.993 1.059-.993 2.443 0 1.468 1.06 2.886 1.224 3.104l.003.005c.012.015.033.047.065.094.385.57 2.246 3.33 5.07 4.442 2.294.905 2.937.83 3.446.77l.13-.015.03-.003c.551-.05 1.778-.726 2.029-1.428.25-.702.25-1.304.175-1.43-.06-.1-.202-.169-.412-.27-.05-.024-.106-.05-.164-.08-.3-.15-1.778-.878-2.054-.978-.275-.1-.476-.15-.676.15-.2.301-.776.978-.952 1.179-.175.2-.35.226-.65.075a4.398 4.398 0 00-.2-.09 7.782 7.782 0 01-2.218-1.401c-.893-.797-1.497-1.78-1.672-2.082-.175-.3-.019-.463.132-.613.09-.09.193-.216.297-.342.052-.063.104-.126.154-.184.127-.15.183-.262.258-.416l.042-.086c.1-.2.05-.376-.025-.526a24.655 24.655 0 01-.308-.744 55.814 55.814 0 00-.618-1.487z" fill="#fff"/><defs><linearGradient id="paint0_linear_5_21" x1="10.002" y1="20.191" x2="10.002" y2=".191" gradientUnits="userSpaceOnUse"><stop stop-color="#20B038"/><stop offset="1" stop-color="#60D66A"/></linearGradient></defs></svg>