<svg width="172" height="46" fill="none" xmlns="http://www.w3.org/2000/svg"><path fill="#E6E6E6" d="M0 0h172v46H0z"/><g clip-path="url(#clip0_40_1738)"><path fill="#fff" d="M-434-5597h1920v8504H-434z"/><path d="M59.516 27.869c-.442-3.32-3.172-5.238-8.114-5.238-5.533 0-9.074 2.73-9.074 6.935 0 3.91 3.32 6.934 9.074 6.934 5.237 0 8.188-2.803 8.188-5.533h-5.459c-.295 1.254-1.033 2.213-2.877 2.213-2.582 0-3.393-1.844-3.393-3.614 0-1.77.811-3.615 3.393-3.615 2.287 0 2.803 1.475 2.877 1.918h5.385z" fill="#0060A7"/><path fill-rule="evenodd" clip-rule="evenodd" d="M60.697 29.566c0 4.057 3.614 6.934 9.073 6.934 5.46 0 9.074-2.877 9.074-6.934 0-4.058-3.614-6.935-9.073-6.935-5.46 0-9.074 2.877-9.074 6.935zm5.532 0c0-2.951 2.14-3.615 3.541-3.615 1.402 0 3.541.664 3.541 3.615 0 2.95-2.139 3.614-3.54 3.614-1.402 0-3.541-.664-3.541-3.614z" fill="#0060A7"/><path d="M80.246 36.131h5.238v-8.483h.073l3.099 8.483h4.13l3.1-8.483h.073v8.483h5.164V22.926h-7.82l-2.582 7.82h-.074l-2.508-7.82h-7.893v13.205z" fill="#0060A7"/><path fill-rule="evenodd" clip-rule="evenodd" d="M109.238 31.41l1.696-4.058h.074l1.623 4.058h-3.393zm-7.599 4.721h5.533l.812-1.918h5.68l.738 1.918h5.754l-6.566-13.279h-5.385l-6.566 13.28z" fill="#0060A7"/><path d="M120.746 36.131h5.238v-7.23h.073l5.459 7.23h5.386V22.926h-5.238v7.082l-5.238-7.082h-5.68v13.205zm17.115-4.426c.073 4.205 5.828 4.795 7.893 4.795 3.984 0 8.262-1.107 8.262-4.574 0-2.434-2.508-3.32-5.016-3.836s-5.09-.738-5.164-1.697c0-.737 1.254-.885 1.992-.885.516 0 1.18.074 1.623.37.442.22.738.59.664 1.032h5.237c-.147-3.246-3.614-4.353-7.45-4.353-3.689 0-7.23 1.328-7.23 4.353 0 2.656 3.246 3.246 6.049 3.836 3.099.664 3.836.811 3.836 1.55 0 .958-1.401 1.18-2.287 1.18-1.032 0-2.213-.148-2.655-.96-.148-.22-.222-.516-.222-.885h-5.532v.074z" fill="#0060A7"/><path fill-rule="evenodd" clip-rule="evenodd" d="M160.951 31.41l1.697-4.058h.073l1.623 4.058h-3.393zm-7.525 4.721h5.533l.811-1.918h5.681l.738 1.918h5.754l-6.566-13.279h-5.385l-6.566 13.28z" fill="#0060A7"/><path d="M1.385 16.434l15.492-8.926 15.492 8.926-3.91 2.287-11.582-6.639-11.582 6.64-3.91-2.288zM15.55 41L3.967 34.36V21.009l-3.91-2.287v17.853L15.55 45.5V41zm14.164-19.992v13.353L18.131 41v4.5l15.492-8.926V18.72l-3.91 2.287zm-18.369 1.18l5.533-3.172 5.533 3.173 3.91-2.287-9.443-5.386-9.443 5.386 3.91 2.287zm4.205 11.804l-5.533-3.172v-6.345l-3.91-2.287v10.845l9.443 5.459v-4.5zm8.115-9.517v6.345l-5.533 3.172v4.5l9.443-5.46V22.19l-3.91 2.286zM16.877.5L.057 10.164v4.5L16.877 5l16.82 9.664v-4.5L16.877.5z" fill="#0090A9"/><path stroke="#F7F5F2" stroke-width="2" d="M-118-36h408V82h-408z"/></g><defs><clipPath id="clip0_40_1738"><path fill="#fff" transform="translate(-434 -5597)" d="M0 0h1920v8504H0z"/></clipPath></defs></svg>