<svg width="140" height="28" fill="none" xmlns="http://www.w3.org/2000/svg"><path d="M.915.204H7.16v10.571h10.245V.205h6.204v27.51h-6.204v-11.51H7.16v11.51H.915V.204zm42.427 20.449h-7.877l-1.96 7.061h-6.449L35.465.204h8.163l8.53 27.51h-6.694l-2.122-7.06zM36.362 16h6.082l-1.714-5.837c-.49-1.632-.98-3.673-1.388-5.306h-.082c-.408 1.633-.816 3.714-1.265 5.306L36.362 16zm19.48 11.714V.571c2-.326 4.98-.571 8.286-.571 4.081 0 6.939.612 8.898 2.163 1.632 1.306 2.53 3.225 2.53 5.755 0 3.51-2.49 5.919-4.857 6.776v.122c1.919.776 2.98 2.613 3.674 5.143.857 3.102 1.714 6.694 2.245 7.755H70.25c-.449-.775-1.102-3.02-1.918-6.408-.735-3.428-1.919-4.367-4.45-4.408h-1.877v10.816h-6.163zm6.163-22.898v7.592h2.45c3.101 0 4.938-1.55 4.938-3.959 0-2.53-1.714-3.796-4.571-3.837-1.51 0-2.368.123-2.817.204zm18.032 22.776V.572C81.669.244 84.976 0 88.077 0 91.875 0 94.2.367 96.2 1.551c1.918 1.02 3.306 2.898 3.306 5.388 0 2.449-1.428 4.735-4.53 5.877v.082c3.142.857 5.469 3.224 5.469 6.776 0 2.49-1.143 4.448-2.857 5.836-2 1.592-5.347 2.49-10.816 2.49-3.062 0-5.347-.204-6.735-.408zM86.2 4.694v6.408h2.04c3.266 0 5.021-1.347 5.021-3.388 0-2.081-1.591-3.183-4.408-3.183-1.347 0-2.122.081-2.653.163zm0 10.857v7.755c.612.082 1.347.082 2.408.082 2.817 0 5.306-1.062 5.306-3.96 0-2.775-2.49-3.877-5.591-3.877H86.2zM104.67.204h6.245v27.51h-6.245V.204zm17.353 27.51h-5.714V.204h7.265l5.715 10.082a79.944 79.944 0 014.49 9.428h.122c-.408-3.632-.531-7.347-.531-11.47V.205h5.715v27.51h-6.531l-5.877-10.612c-1.633-2.939-3.429-6.49-4.776-9.714l-.122.04c.163 3.633.244 7.51.244 12v8.286z" fill="#000"/></svg>