<svg width="74" height="30" fill="none" xmlns="http://www.w3.org/2000/svg"><path fill="#E6E6E6" d="M0 0h74v30H0z"/><g clip-path="url(#clip0_40_1738)"><path fill="#fff" d="M-1363-5605H557v8504h-1920z"/><path d="M.403 28.23l1.338-5.439c1.77.907 4.49 1.813 7.295 1.813 3.022 0 4.62-1.252 4.62-3.15 0-1.814-1.382-2.85-4.879-4.102C3.943 15.67.792 12.992.792 8.762.792 3.8 4.936 0 11.799 0c3.28 0 5.698.69 7.424 1.468l-1.467 5.309a13.83 13.83 0 00-6.087-1.381c-2.848 0-4.23 1.295-4.23 2.805 0 1.857 1.64 2.677 5.396 4.101 5.137 1.9 7.554 4.576 7.554 8.676 0 4.878-3.755 9.022-11.741 9.022-3.324 0-6.604-.863-8.245-1.77zm24.434 1.338V.475h6.518v12.863h.13c.647-1.122 1.337-2.158 1.985-3.194l6.604-9.67h8.072l-9.626 12.39 10.144 16.704H40.98l-7.122-12.56-2.503 3.064v9.496h-6.518zm39.177 0h-6.561V17.655L48.259.475h7.51l2.979 6.993c.906 2.115 1.51 3.669 2.244 5.568h.087c.647-1.813 1.338-3.496 2.201-5.568L66.215.475h7.382l-9.583 16.964v12.13z" fill="#000"/><path stroke="#F7F5F2" stroke-width="2" d="M-167-44h408V74h-408z"/></g><defs><clipPath id="clip0_40_1738"><path fill="#fff" transform="translate(-1363 -5605)" d="M0 0h1920v8504H0z"/></clipPath></defs></svg>